<svg viewBox="0 0 1024 1024">
  <path d="M1020.06434,2.97514842 C1016.87472,0.450629341 1012.51156,0.00450153583 1008.95555,1.88461244 L5.95351178,514.880572 C2.22049038,516.797861 0.0203277838,520.756362 0.344245622,524.936157 C0.712415135,529.112411 3.5356333,532.667273 7.53239005,533.941926 L343.279486,640.681612 C346.810723,641.789851 350.626935,640.961326 353.335102,638.497 L817.806817,219.94565 L446.952685,658.994107 C444.708271,661.639008 443.943611,665.252292 444.933066,668.584091 C445.920751,671.91766 448.505014,674.543088 451.832695,675.552187 L824.389608,789.056378 C825.352512,789.359107 826.370287,789.500736 827.377441,789.500736 C829.149255,789.500736 830.926378,789.035133 832.505256,788.144648 C834.965616,786.733679 836.76398,784.372032 837.429516,781.603207 L1023.69292,13.5335128 C1024.64698,9.59802696 1023.2274,5.48019256 1020.06434,2.97514842 L1020.06434,2.97514842 L1020.06434,2.97514842 L1020.06434,2.97514842 Z"></path>
  <path d="M560.839031,757.069701 L457.870312,725.387525 C454.758576,724.376656 451.331773,724.983885 448.705029,726.940123 C446.058814,728.903441 444.504716,731.990931 444.504716,735.262535 L444.504716,929.636294 C444.504716,934.242744 447.536801,938.279141 451.972528,939.569725 C452.903571,939.833508 453.873555,939.975135 454.847078,939.975135 C458.318132,939.975135 461.647583,938.218948 463.569851,935.166865 L566.527952,772.478824 C568.264363,769.750715 568.628992,766.378199 567.499705,763.370376 C566.388117,760.343077 563.924215,758.020378 560.839031,757.069701 L560.839031,757.069701 L560.839031,757.069701 L560.839031,757.069701 Z"></path>
</svg>
