<svg viewBox="0 0 1024 1024" xmlns="http://www.w3.org/2000/svg">
  <path d="M1023.95733,524.085365 C1023.95733,635.653773 991.399951,735.999913 926.285191,825.123785 C861.170432,914.247656 777.0532,975.920351 673.933495,1010.14187 C661.928939,1012.36072 653.153097,1010.81037 647.605968,1005.49081 C642.05884,1000.17126 639.285275,993.500482 639.285274,985.47848 L639.285274,844.794757 C639.285274,801.669385 627.735867,770.107644 604.637054,750.109533 C629.983166,747.435533 652.769065,743.438755 672.994751,738.119201 C693.220436,732.799647 714.114622,724.137592 735.677308,712.133035 C757.239994,700.128479 775.246828,685.350359 789.69781,667.798675 C804.148792,650.24699 815.925774,626.906379 825.028754,597.77684 C834.131735,568.647301 838.683225,535.193847 838.683225,497.416477 C838.683225,443.62355 821.13154,397.838401 786.028171,360.06103 C802.47043,319.60966 800.692504,274.27966 780.694392,224.071031 C768.234687,220.06003 750.227853,222.506457 726.67389,231.41031 C703.119927,240.314163 682.680891,250.099867 665.35678,260.767423 L640.010668,276.768757 C598.677445,265.21935 556.007223,259.444646 512,259.444646 C467.992777,259.444646 425.322555,265.21935 383.989332,276.768757 C376.877629,271.875904 367.433286,265.873626 355.656304,258.761922 C343.879322,251.650219 325.317776,243.087728 299.971664,233.074449 C274.625553,223.06117 255.509293,220.060031 242.622885,224.071032 C223.051476,274.308107 221.501125,319.638107 237.971831,360.061031 C202.868461,397.838401 185.316776,443.62355 185.316776,497.416478 C185.316776,535.193848 189.868266,568.533515 198.971247,597.43548 C208.074228,626.337444 219.737421,649.678056 233.960829,667.457315 C248.184236,685.236573 266.077283,700.128481 287.639968,712.133038 C309.202654,724.137595 330.09684,732.79965 350.322526,738.119203 C370.548211,743.438757 393.33411,747.435534 418.680223,750.109535 C400.900963,766.096645 390.005833,788.982108 385.994833,818.765924 C376.664277,823.203627 366.665222,826.531904 355.997667,828.750755 C345.330111,830.969607 332.657055,832.079032 317.978498,832.079032 C303.299941,832.079032 288.749395,827.299967 274.326861,817.741838 C259.904327,808.183708 247.572632,794.287439 237.331778,776.05303 C228.883074,761.829623 218.101731,750.280216 204.987749,741.404809 C191.873767,732.529403 180.879073,727.195625 172.003667,725.403476 L158.647888,723.397975 C149.317332,723.397975 142.874129,724.393614 139.318277,726.384891 C135.762426,728.376168 134.653,730.936381 135.99,734.065531 C137.327001,737.19468 139.332501,740.309607 142.006501,743.41031 C144.680502,746.511013 147.567853,749.17079 150.668556,751.389641 L155.319611,754.717918 C165.105315,759.155621 174.777232,767.604325 184.335362,780.06403 C193.893492,792.523736 200.891408,803.859792 205.329111,814.072198 L211.985666,829.390808 C217.76037,846.288217 227.546074,859.956911 241.342779,870.396892 C255.139485,880.836873 270.031393,887.507651 286.018503,890.409227 C302.005613,893.310802 317.452233,894.861153 332.358364,895.060281 C347.264494,895.259409 359.596189,894.477121 369.353447,892.713418 L384.672057,890.025194 C384.672057,906.922603 384.785844,926.707363 385.013418,949.379474 C385.240993,972.051585 385.35478,984.056141 385.35478,985.393142 C385.35478,993.386696 382.467428,1000.05747 376.692725,1005.40548 C370.918021,1010.75348 362.028391,1012.30383 350.023835,1010.05653 C246.904131,975.835012 162.786899,914.162317 97.6721392,825.038446 C32.5573797,735.914576 -1.10592055e-14,635.568436 0,524.000026 C0,431.092729 22.8854628,345.425145 68.6563884,266.997277 C114.427314,188.569408 176.540935,126.455788 254.99725,80.6564149 C333.453566,34.857042 419.121149,11.9715792 512,12.0000265 C604.878851,12.0284737 690.546434,34.9139366 769.00275,80.6564149 C847.459065,126.398893 909.572686,188.512514 955.343612,266.997277 C1001.11454,345.48204 1024,431.149623 1024,524.000026 L1023.95733,524.085365 Z"></path>
</svg>
