<svg viewBox="0 0 1024 1024">
  <path :class="$style.svg" d="M843.691401 837.737806l39.022759 0 0 34.287921-39.022759 0 0-34.287921Z"></path>
  <path :class="$style.svg" d="M121.773438 803.449885l780.452101 0 0 17.144472-780.452101 0 0-17.144472Z"></path>
  <path :class="$style.svg" d="M63.240323 752.017492l0 171.440627 897.519354 0L960.759677 752.017492 63.240323 752.017492zM921.736918 889.170199 102.263082 889.170199 102.263082 786.305413 921.736918 786.305413 921.736918 889.170199z"></path>
  <path :class="$style.svg" d="M920.040277 752.017492l40.7194 0L882.71416 100.540857 141.284817 100.540857 63.240323 752.017492l40.7194 0 76.348875-617.187691 663.383826 0L920.040277 752.017492z"></path>
  <path :class="$style.svg" d="M414.443104 271.982508c-58.534138 0-97.556896 17.144472-97.556896 17.144472l-19.511379 137.152706c0 0 39.022759-17.144472 97.556896-17.144472s97.556896 17.144472 97.556896 17.144472l19.511379-137.152706C512 289.125957 472.977241 271.982508 414.443104 271.982508zM460.560444 391.990742c0 0-24.832572-9.524934-62.080917-9.524934-37.248346 0-62.080917 9.524934-62.080917 9.524934l12.415774-76.196403c0 0 24.832572-9.524934 62.080917-9.524934 37.248346 0 62.080917 9.524934 62.080917 9.524934L460.560444 391.990742z"></path>
  <path :class="$style.svg" d="M297.375851 460.567607l-19.511379 137.152706c0 0 39.022759-17.144472 97.556896-17.144472 58.534138 0 97.556896 17.144472 97.556896 17.144472l19.511379-137.152706c0 0-39.022759-17.144472-97.556896-17.144472S297.375851 460.567607 297.375851 460.567607zM441.050088 563.432393c0 0-24.832572-9.524934-62.080917-9.524934-37.248346 0-62.080917 9.524934-62.080917 9.524934l12.416797-76.196403c0 0 24.832572-9.524934 62.080917-9.524934s62.080917 9.524934 62.080917 9.524934L441.050088 563.432393z"></path>
  <path :class="$style.svg" d="M648.578632 306.270429c-58.534138 0-97.556896-17.144472-97.556896-17.144472l-19.511379 137.152706c0 0 39.022759 17.144472 97.556896 17.144472 58.534138 0 97.556896-17.144472 97.556896-17.144472l19.511379-137.152706C746.135528 289.125957 707.11277 306.270429 648.578632 306.270429zM694.696995 399.61028c0 0-24.832572 9.524934-62.080917 9.524934-37.248346 0-62.080917-9.524934-62.080917-9.524934l12.416797-76.196403c0 0 24.832572 9.524934 62.080917 9.524934 37.249369 0 62.080917-9.524934 62.080917-9.524934L694.696995 399.61028z"></path>
  <path :class="$style.svg" d="M531.511379 460.567607l-19.511379 137.152706c0 0 39.022759 17.144472 97.556896 17.144472s97.556896-17.144472 97.556896-17.144472l19.511379-137.152706c0 0-39.022759 17.144472-97.556896 17.144472C570.534138 477.712079 531.511379 460.567607 531.511379 460.567607zM675.185616 571.051931c0 0-24.832572 9.524934-62.080917 9.524934-37.249369 0-62.080917-9.524934-62.080917-9.524934l12.415774-76.196403c0 0 24.832572 9.524934 62.080917 9.524934 37.248346 0 62.080917-9.524934 62.080917-9.524934L675.185616 571.051931z"></path>
</svg>
